<?xml version="1.0" encoding="UTF-8"?>
<svg width="1191px" height="478px" viewBox="0 0 1191 478" version="1.1" xmlns="http://www.w3.org/2000/svg" xmlns:xlink="http://www.w3.org/1999/xlink">
    <!-- Generator: Sketch 46.2 (44496) - http://www.bohemiancoding.com/sketch -->
    <title>Artboard</title>
    <desc>Created with Sketch.</desc>
    <defs></defs>
    <g id="Page-1" stroke="none" stroke-width="1" fill="none" fill-rule="evenodd">
        <g id="Artboard">
            <g id="Group-2" transform="translate(-10.000000, -22.000000)">
                <g id="Group-3">
                    <g id="Group" transform="translate(474.000000, 22.000000)">
                        <g id="Group-28" fill="#225964">
                            <path d="M109.881507,82.9718006 C109.881507,82.9718006 155.583208,137.433422 240.728908,127.821045 C240.728908,127.821045 264.288956,152.197402 252.305307,212.352839 C252.305307,212.352839 294.788561,116.081615 239.252332,52.0819239 C239.252332,52.0819239 177.681807,-15.9222472 109.400951,3.7460299 C109.400951,3.7460299 51.4037623,-3.81476233 13.173371,72.1147723 C13.173371,72.1147723 -18.9575648,124.312336 17.5356104,213.755394 C17.5356104,213.755394 7.82558432,151.021253 36.0469111,128.594308 C36.0469111,128.594308 74.3773698,114.170518 109.881507,82.9718006" id="Fill-27"></path>
                        </g>
                        <path d="M199.711877,252.315145 C184.771185,251.062545 152.167591,244.358206 152.148945,197.038008 C152.140788,179.429023 184.724572,175.215837 199.711877,175.215837 C214.701512,175.215837 241.78494,175.215837 244.702925,195.565325 C246.897241,210.924312 250.499275,256.591546 199.711877,252.315145 L199.711877,252.315145 Z M68.2790024,252.315145 C17.4892733,256.591546 21.0924726,210.924312 23.2914498,195.565325 C26.2175926,175.215837 53.2882013,175.215837 68.2790024,175.215837 C83.2791262,175.215837 115.836107,179.429023 115.82795,197.038008 C115.813966,244.358206 83.218529,251.062545 68.2790024,252.315145 L68.2790024,252.315145 Z M262.610547,179.412633 C262.396126,176.528141 261.814626,175.921742 258.826721,175.692293 C254.976472,175.393776 251.102916,175.245103 247.278304,174.866982 C241.766294,174.305068 232.87949,173.19997 227.358158,172.687223 C223.365739,172.350075 213.037422,171.503691 209.064813,171.187615 C208.120896,171.113863 208.522934,171.14313 208.971586,171.181761 C204.085359,170.791933 196.420986,171.07289 191.593025,171.610221 C186.176572,171.596173 173.068944,174.05806 168.76072,174.977023 C163.372236,176.111388 158.029199,177.321844 152.660525,178.574445 C146.469129,180.021374 140.18334,180.447492 133.854435,180.467393 C127.625747,180.434615 121.436681,179.986254 115.314039,178.574445 C109.958184,177.321844 104.612817,176.111388 99.2406469,174.977023 C94.9219351,174.05806 80.8086272,172.222473 76.3885317,171.610221 C71.5535788,171.070549 63.8589069,170.795445 58.9656875,171.187615 C54.987252,171.503691 44.6169831,172.350075 40.6385475,172.687223 C35.1207114,173.19997 26.2362379,174.305068 20.7184018,174.866982 C16.8739792,175.245103 13.0120766,175.393776 9.16881927,175.692293 C6.17625263,175.921742 5.50269207,177.634409 5.28827141,180.513049 C5.20203701,183.642208 5.03189888,187.885831 5.00043498,191.018503 C4.98645102,192.346025 5.30342069,193.541263 6.85563984,193.991965 C10.6394653,195.068967 12.6181952,197.605776 13.2486385,201.376454 C13.9932842,205.877621 14.8894227,210.358886 15.6853429,214.878784 C16.943899,221.920271 18.6674216,228.852887 21.4921807,235.472938 C23.9102398,241.175197 27.1685016,246.35066 32.8343346,249.382656 C36.5878615,251.395011 40.5896037,253.120556 44.6764149,254.34389 C51.5716707,256.410095 58.7174723,257.307987 65.972815,256.906452 C86.2378982,255.784965 104.608155,246.460702 114.097435,228.413891 C117.926708,221.133591 120.879654,213.486875 123.603029,205.753531 C127.032595,195.984419 140.856901,195.713998 144.396007,205.753531 C147.11006,213.486875 150.043195,221.133591 153.893444,228.413891 C163.380393,246.460702 181.73317,255.784965 202.015733,256.906452 C209.262919,257.307987 216.413382,256.410095 223.31563,254.34389 C227.405937,253.120556 231.398356,251.395011 235.149553,249.382656 C240.822377,246.35066 244.061994,241.175197 246.515013,235.472938 C249.310639,228.852887 251.042319,221.920271 252.29971,214.878784 C253.096795,210.358886 253.984776,205.877621 254.73991,201.376454 C255.385503,197.605776 257.351414,195.068967 261.150389,193.991965 C262.671144,193.541263 263.010255,192.346025 262.999767,191.018503 C262.968303,187.885831 262.7096,182.541793 262.610547,179.412633 L262.610547,179.412633 Z" id="Fill-29" fill="#000000"></path>
                        <path d="M214,223.141381 C214,227.862213 212.208848,231.848797 208.63481,235.105787 C205.044242,238.368596 200.733435,240 195.683498,240 C188.718433,240 183.486665,237.19566 180,231.571854 L195.683498,223.141381 L180,214.703926 C183.486665,208.89743 188.718433,206 195.683498,206 C200.733435,206 205.044242,207.665149 208.63481,211.030357 C212.208848,214.376947 214,218.424039 214,223.141381" id="Fill-30" fill="#225964"></path>
                        <path d="M89,223.140217 C89,227.863377 87.2102156,231.854615 83.6282857,235.112769 C80.042814,238.37325 75.7336366,240 70.6901281,240 C63.7175249,240 58.4886628,237.202642 55,231.575345 L70.6901281,223.140217 L55,214.710907 C58.4886628,208.89743 63.7175249,206 70.6901281,206 C75.7336366,206 80.042814,207.672131 83.6282857,211.030357 C87.2102156,214.376947 89,218.424039 89,223.140217" id="Fill-31" fill="#225964"></path>
                        <polyline id="Fill-32" fill="#225964" points="133.990774 307 144 284 124 284 133.990774 307"></polyline>
                        <polyline id="Fill-33" fill="#225964" points="130 250 130 265.996138 76 274 130 250"></polyline>
                        <polyline id="Fill-34" fill="#225964" points="139 250 139 265.996138 193 274 139 250"></polyline>
                    </g>
                    <text id="PAGE-NOT-FOUND!" font-family="HiraginoSans-W1, Hiragino Sans" font-size="130" font-weight="300" fill="#000000">
                        <tspan x="0" y="500">PAGE NOT FOUND!</tspan>
                    </text>
                    <text id="4" font-family="HiraginoSans-W4, Hiragino Sans" font-size="350" font-weight="normal" fill="#000000">
                        <tspan x="775" y="308">4</tspan>
                    </text>
                    <text id="4" font-family="HiraginoSans-W4, Hiragino Sans" font-size="350" font-weight="normal" fill="#000000">
                        <tspan x="204" y="308">4</tspan>
                    </text>
                </g>
            </g>
        </g>
    </g>
</svg>