<?xml version="1.0" encoding="UTF-8"?>
<svg width="64px" height="64px" viewBox="0 0 64 64" version="1.1" xmlns="http://www.w3.org/2000/svg" xmlns:xlink="http://www.w3.org/1999/xlink">
    <!-- Generator: Sketch 46.2 (44496) - http://www.bohemiancoding.com/sketch -->
    <title>Paper 64</title>
    <desc>Created with Sketch.</desc>
    <defs></defs>
    <g id="Page-1" stroke="none" stroke-width="1" fill="none" fill-rule="evenodd">
        <g id="Paper-64">
            <g id="paper-64" transform="translate(8.000000, 0.000000)">
                <polygon id="Rectangle-23" fill="#BDC3C7" points="32 0 48 16 32 16"></polygon>
                <path d="M37.9950534,0 L4.00989318,0 C1.79405245,0 0,1.79242202 0,4.00348663 L0,59.9965134 C0,62.2046235 1.79529033,64 4.00989318,64 L43.9901068,64 C46.2059475,64 48,62.207578 48,59.9965134 L48,10.0017433 L48,16 L35.9962027,16 C33.7891609,16 32,14.2111696 32,12.0037973 L32,0 L37.9950534,0 Z" id="Rectangle-21" fill="#ECF0F1"></path>
                <path d="M8,26 C8,24.8954305 8.88926172,24 10.0017433,24 L37.9982567,24 C39.103789,24 40,24.8877296 40,26 C40,27.1045695 39.1107383,28 37.9982567,28 L10.0017433,28 C8.89621101,28 8,27.1122704 8,26 Z M8,34 C8,32.8954305 8.88926172,32 10.0017433,32 L37.9982567,32 C39.103789,32 40,32.8877296 40,34 C40,35.1045695 39.1107383,36 37.9982567,36 L10.0017433,36 C8.89621101,36 8,35.1122704 8,34 Z M8,42 C8,40.8954305 8.88926172,40 10.0017433,40 L37.9982567,40 C39.103789,40 40,40.8877296 40,42 C40,43.1045695 39.1107383,44 37.9982567,44 L10.0017433,44 C8.89621101,44 8,43.1122704 8,42 Z M8,50 C8,48.8954305 8.88926172,48 10.0017433,48 L37.9982567,48 C39.103789,48 40,48.8877296 40,50 C40,51.1045695 39.1107383,52 37.9982567,52 L10.0017433,52 C8.89621101,52 8,51.1122704 8,50 Z" id="Rectangle-24" fill="#BDC3C7"></path>
            </g>
        </g>
    </g>
</svg>